<svg width="24" height="28" viewBox="0 0 24 28" fill="none" xmlns="http://www.w3.org/2000/svg">
<path d="M18.7031 12.5023H4.92188C3.83456 12.5023 2.95312 13.52 2.95312 14.7755V22.7315C2.95312 23.9869 3.83456 25.0046 4.92188 25.0046H18.7031C19.7904 25.0046 20.6719 23.9869 20.6719 22.7315V14.7755C20.6719 13.52 19.7904 12.5023 18.7031 12.5023Z" stroke="#F2B705" stroke-linecap="round" stroke-linejoin="round"/>
<path d="M6.89062 12.5023V7.95603C6.89063 6.44884 7.40918 5.00338 8.33221 3.93764C9.25524 2.87189 10.5071 2.27316 11.8125 2.27316C13.1179 2.27316 14.3698 2.87189 15.2928 3.93764C16.2158 5.00338 16.7344 6.44884 16.7344 7.95603V12.5023" stroke="#F2B705" stroke-linecap="round" stroke-linejoin="round"/>
</svg>
